<svg width="32" height="32" xmlns="http://www.w3.org/2000/svg">

 <g>
  <title>background</title>
  <rect fill="none" id="canvas_background" height="602" width="802" y="-1" x="-1"/>
 </g>
 <g>
  <title>Layer 1</title>
  <g id="icomoon-ignore"/>
  <path id="svg_1" fill="#ffffff" d="m16,6.404c-5.847,0 -10.404,3.66 -15.994,9.593c4.816,5.073 8.857,9.6 15.994,9.6s12.382,-5.73 15.994,-9.492c-3.697,-4.407 -8.943,-9.7 -15.994,-9.7l0,-0.001zm0,18.126c-6.336,0 -10.16,-3.929 -14.524,-8.532c5.192,-5.414 9.32,-8.527 14.524,-8.527c6.161,0 10.975,4.443 14.558,8.591c-3.523,3.674 -8.293,8.469 -14.558,8.469l0,-0.001z"/>
  <path id="svg_2" fill="#ffffff" d="m16,9.603c-3.528,0 -6.398,2.87 -6.398,6.397s2.87,6.397 6.398,6.397s6.398,-2.87 6.398,-6.397s-2.87,-6.397 -6.398,-6.397zm0,11.728c-2.939,0 -5.331,-2.391 -5.331,-5.331s2.392,-5.331 5.331,-5.331s5.331,2.391 5.331,5.331c0,2.939 -2.392,5.331 -5.331,5.331z"/>
  <path id="svg_3" fill="#ffffff" d="m16,12.268c-2.058,0 -3.732,1.674 -3.732,3.732s1.674,3.732 3.732,3.732c2.058,0 3.732,-1.674 3.732,-3.732s-1.674,-3.732 -3.732,-3.732zm0,6.398c-1.47,0 -2.666,-1.196 -2.666,-2.666s1.196,-2.666 2.666,-2.666s2.666,1.196 2.666,2.666c0,1.47 -1.196,2.666 -2.666,2.666z"/>
 </g>
</svg>